<svg aria-hidden="true" xmlns="http://www.w3.org/2000/svg" xmlns:xlink="http://www.w3.org/1999/xlink"><symbol viewBox="0 0 14 14" id="add-to-cart" xmlns="http://www.w3.org/2000/svg">
<path d="M10.6667 10.6667C9.92667 10.6667 9.33333 11.26 9.33333 12C9.33333 12.3536 9.47381 12.6928 9.72386 12.9428C9.97391 13.1929 10.313 13.3333 10.6667 13.3333C11.0203 13.3333 11.3594 13.1929 11.6095 12.9428C11.8595 12.6928 12 12.3536 12 12C12 11.6464 11.8595 11.3072 11.6095 11.0572C11.3594 10.8071 11.0203 10.6667 10.6667 10.6667ZM0 0V1.33333H1.33333L3.73333 6.39333L2.82667 8.02667C2.72667 8.21333 2.66667 8.43333 2.66667 8.66667C2.66667 9.02029 2.80714 9.35943 3.05719 9.60948C3.30724 9.85952 3.64638 10 4 10H12V8.66667H4.28C4.2358 8.66667 4.1934 8.64911 4.16215 8.61785C4.13089 8.5866 4.11333 8.5442 4.11333 8.5C4.11333 8.46667 4.12 8.44 4.13333 8.42L4.73333 7.33333H9.7C10.2 7.33333 10.64 7.05333 10.8667 6.64667L13.2533 2.33333C13.3 2.22667 13.3333 2.11333 13.3333 2C13.3333 1.82319 13.2631 1.65362 13.1381 1.5286C13.013 1.40357 12.8435 1.33333 12.6667 1.33333H2.80667L2.18 0H0ZM4 10.6667C3.26 10.6667 2.66667 11.26 2.66667 12C2.66667 12.3536 2.80714 12.6928 3.05719 12.9428C3.30724 13.1929 3.64638 13.3333 4 13.3333C4.35362 13.3333 4.69276 13.1929 4.94281 12.9428C5.19286 12.6928 5.33333 12.3536 5.33333 12C5.33333 11.6464 5.19286 11.3072 4.94281 11.0572C4.69276 10.8071 4.35362 10.6667 4 10.6667Z"/>
<path d="M7.5 2.66675V5.66675M6 4.16675H9" stroke-width="0.5"/>
</symbol><symbol viewBox="0 0 10 15" id="arrow" xmlns="http://www.w3.org/2000/svg">
<path d="M1 1L9 7.5L1 14"/>
</symbol><symbol viewBox="0 0 16 16" id="cart" xmlns="http://www.w3.org/2000/svg">
<path d="M12.8 12.8C11.912 12.8 11.2 13.512 11.2 14.4C11.2 14.8243 11.3686 15.2313 11.6686 15.5314C11.9687 15.8314 12.3757 16 12.8 16C13.2243 16 13.6313 15.8314 13.9314 15.5314C14.2314 15.2313 14.4 14.8243 14.4 14.4C14.4 13.9757 14.2314 13.5687 13.9314 13.2686C13.6313 12.9686 13.2243 12.8 12.8 12.8ZM0 0V1.6H1.6L4.48 7.672L3.392 9.632C3.272 9.856 3.2 10.12 3.2 10.4C3.2 10.8243 3.36857 11.2313 3.66863 11.5314C3.96869 11.8314 4.37565 12 4.8 12H14.4V10.4H5.136C5.08296 10.4 5.03209 10.3789 4.99458 10.3414C4.95707 10.3039 4.936 10.253 4.936 10.2C4.936 10.16 4.944 10.128 4.96 10.104L5.68 8.8H11.64C12.24 8.8 12.768 8.464 13.04 7.976L15.904 2.8C15.96 2.672 16 2.536 16 2.4C16 2.18783 15.9157 1.98434 15.7657 1.83431C15.6157 1.68429 15.4122 1.6 15.2 1.6H3.368L2.616 0H0ZM4.8 12.8C3.912 12.8 3.2 13.512 3.2 14.4C3.2 14.8243 3.36857 15.2313 3.66863 15.5314C3.96869 15.8314 4.37565 16 4.8 16C5.22435 16 5.63131 15.8314 5.93137 15.5314C6.23143 15.2313 6.4 14.8243 6.4 14.4C6.4 13.9757 6.23143 13.5687 5.93137 13.2686C5.63131 12.9686 5.22435 12.8 4.8 12.8Z"/>
</symbol><symbol viewBox="0 0 16 15" id="favorite" xmlns="http://www.w3.org/2000/svg">
<path d="M14.7307 1.39307C13.9025 0.494751 12.766 0 11.5304 0C10.6068 0 9.76099 0.291992 9.01636 0.867798C8.64062 1.15845 8.30017 1.51404 8 1.92908C7.69995 1.51416 7.35938 1.15845 6.98352 0.867798C6.23901 0.291992 5.39319 0 4.4696 0C3.23401 0 2.09741 0.494751 1.26917 1.39307C0.450806 2.28088 0 3.49377 0 4.80847C0 6.16162 0.504272 7.40027 1.58691 8.70667C2.55542 9.87524 3.94739 11.0615 5.55933 12.4352C6.10974 12.9043 6.73364 13.436 7.38147 14.0024C7.55261 14.1523 7.77222 14.2349 8 14.2349C8.22766 14.2349 8.44739 14.1523 8.61829 14.0027C9.26611 13.4362 9.89038 12.9042 10.441 12.4348C12.0527 11.0614 13.4447 9.87524 14.4132 8.70654C15.4958 7.40027 16 6.16162 16 4.80835C16 3.49377 15.5492 2.28088 14.7307 1.39307Z"/>
</symbol><symbol viewBox="0 0 8 15" id="fb" xmlns="http://www.w3.org/2000/svg">
<path fill-rule="evenodd" clip-rule="evenodd" d="M4.744 14.9999V8.62194H6.922L7.233 6.13294H4.744V4.57794C4.744 3.87794 4.977 3.33394 5.988 3.33394H7.31V1.07794C7 1.07794 6.222 0.99994 5.367 0.99994C4.93393 0.970784 4.49971 1.03595 4.09428 1.19093C3.68885 1.34591 3.32188 1.58703 3.01869 1.89763C2.71551 2.20823 2.48333 2.58092 2.33819 2.98997C2.19305 3.39903 2.13839 3.83471 2.178 4.26694V6.13294H0V8.62194H2.178V14.9999H4.744Z"/>
</symbol><symbol viewBox="0 0 16 16" id="inst" xmlns="http://www.w3.org/2000/svg">
<path fill-rule="evenodd" clip-rule="evenodd" d="M7.99999 2.2439C8.93403 2.2089 9.86935 2.23496 10.8 2.3219C11.2514 2.31616 11.6998 2.3952 12.122 2.5549C12.7044 2.82638 13.1725 3.29447 13.444 3.8769C13.6042 4.29935 13.6835 4.74814 13.678 5.1999C13.678 5.8999 13.756 6.1329 13.756 7.9999C13.791 8.93394 13.7649 9.86926 13.678 10.7999C13.6837 11.2513 13.6047 11.6997 13.445 12.1219C13.1735 12.7043 12.7054 13.1724 12.123 13.4439C11.7008 13.6036 11.2524 13.6826 10.801 13.6769C10.101 13.6769 9.86799 13.7549 8.00099 13.7549C7.06696 13.7899 6.13163 13.7638 5.20099 13.6769C4.74963 13.6826 4.3012 13.6036 3.87899 13.4439C3.29657 13.1724 2.82847 12.7043 2.55699 12.1219C2.39661 11.6998 2.31689 11.2514 2.32199 10.7999C2.32199 10.0999 2.24399 9.8669 2.24399 7.9999C2.209 7.06586 2.23505 6.13054 2.32199 5.1999C2.31625 4.74854 2.39529 4.30011 2.55499 3.8779C2.6909 3.58935 2.87524 3.32621 3.09999 3.0999C3.28254 2.82802 3.55997 2.63403 3.87799 2.5559C4.30013 2.39586 4.74856 2.31648 5.19999 2.3219C6.13063 2.23496 7.06596 2.2089 7.99999 2.2439ZM7.99999 0.999901C7.03997 0.965724 6.07875 0.991775 5.12199 1.0779C4.53748 1.07653 3.95763 1.18192 3.41099 1.3889C2.93911 1.54296 2.51205 1.81005 2.16699 2.1669C1.81014 2.51195 1.54305 2.93902 1.38899 3.4109C1.14483 3.94655 1.03795 4.53459 1.07799 5.1219C0.991866 6.07866 0.965815 7.03988 0.999992 7.9999C0.965815 8.95992 0.991866 9.92114 1.07799 10.8779C1.07662 11.4624 1.18201 12.0423 1.38899 12.5889C1.54305 13.0608 1.81014 13.4878 2.16699 13.8329C2.51205 14.1898 2.93911 14.4568 3.41099 14.6109C3.95763 14.8179 4.53748 14.9233 5.12199 14.9219C6.07875 15.008 7.03997 15.0341 7.99999 14.9999C8.96001 15.0341 9.92123 15.008 10.878 14.9219C11.4625 14.9233 12.0424 14.8179 12.589 14.6109C13.0574 14.4495 13.4829 14.1835 13.8333 13.8332C14.1836 13.4829 14.4496 13.0573 14.611 12.5889C14.818 12.0423 14.9234 11.4624 14.922 10.8779C14.922 10.0999 15 9.8669 15 7.9999C15.0342 7.03988 15.0081 6.07866 14.922 5.1219C14.9234 4.53739 14.818 3.95754 14.611 3.4109C14.4569 2.93902 14.1898 2.51195 13.833 2.1669C13.4879 1.81005 13.0609 1.54296 12.589 1.3889C12.0424 1.18192 11.4625 1.07653 10.878 1.0779C9.92123 0.991775 8.96001 0.965724 7.99999 0.999901ZM7.99999 4.4219C7.52796 4.41406 7.05917 4.50125 6.62153 4.67828C6.18388 4.85531 5.78631 5.11858 5.45249 5.4524C5.11867 5.78622 4.85541 6.18379 4.67837 6.62143C4.50134 7.05908 4.41415 7.52787 4.42199 7.9999C4.42199 8.70756 4.63184 9.39933 5.02499 9.98773C5.41815 10.5761 5.97696 11.0347 6.63075 11.3055C7.28454 11.5764 8.00396 11.6472 8.69803 11.5092C9.39209 11.3711 10.0296 11.0303 10.53 10.5299C11.0304 10.0295 11.3712 9.392 11.5092 8.69793C11.6473 8.00387 11.5764 7.28445 11.3056 6.63066C11.0348 5.97687 10.5762 5.41806 9.98782 5.0249C9.39942 4.63175 8.70765 4.4219 7.99999 4.4219ZM7.99999 10.3329C7.69209 10.3385 7.38622 10.2819 7.10066 10.1666C6.81509 10.0514 6.55569 9.87972 6.33793 9.66196C6.12017 9.44421 5.94853 9.1848 5.83326 8.89924C5.71798 8.61367 5.66143 8.3078 5.66699 7.9999C5.66143 7.692 5.71798 7.38613 5.83326 7.10057C5.94853 6.815 6.12017 6.55559 6.33793 6.33784C6.55569 6.12008 6.81509 5.94844 7.10066 5.83317C7.38622 5.71789 7.69209 5.66134 7.99999 5.6669C8.3079 5.66134 8.61376 5.71789 8.89933 5.83317C9.18489 5.94844 9.4443 6.12008 9.66206 6.33784C9.87981 6.55559 10.0515 6.815 10.1667 7.10057C10.282 7.38613 10.3386 7.692 10.333 7.9999C10.3386 8.3078 10.282 8.61367 10.1667 8.89924C10.0515 9.1848 9.87981 9.44421 9.66206 9.66196C9.4443 9.87972 9.18489 10.0514 8.89933 10.1666C8.61376 10.2819 8.3079 10.3385 7.99999 10.3329ZM11.733 3.4109C11.5637 3.4109 11.3982 3.4611 11.2574 3.55516C11.1167 3.64922 11.0069 3.78291 10.9422 3.93932C10.8774 4.09574 10.8604 4.26785 10.8934 4.4339C10.9265 4.59995 11.008 4.75247 11.1277 4.87218C11.2474 4.9919 11.3999 5.07342 11.566 5.10645C11.732 5.13948 11.9042 5.12253 12.0606 5.05774C12.217 4.99295 12.3507 4.88324 12.4447 4.74247C12.5388 4.6017 12.589 4.4362 12.589 4.2669C12.5872 4.04044 12.4964 3.82378 12.3363 3.66364C12.1761 3.5035 11.9595 3.41273 11.733 3.4109Z"/>
</symbol><symbol viewBox="0 0 27 29" id="scroll-down" xmlns="http://www.w3.org/2000/svg">
<circle cx="13.5" cy="5.5" r="4" stroke-width="3"/>
<path d="M2 17L13.5 26L25 17" stroke-width="4"/>
</symbol><symbol viewBox="0 0 16 16" id="search" xmlns="http://www.w3.org/2000/svg">
<path d="M5.94286 0C7.519 0 9.03059 0.62612 10.1451 1.74062C11.2596 2.85512 11.8857 4.36671 11.8857 5.94286C11.8857 7.41486 11.3463 8.768 10.4594 9.81029L10.7063 10.0571H11.4286L16 14.6286L14.6286 16L10.0571 11.4286V10.7063L9.81029 10.4594C8.73193 11.3799 7.36065 11.8856 5.94286 11.8857C4.36671 11.8857 2.85512 11.2596 1.74062 10.1451C0.62612 9.03059 0 7.519 0 5.94286C0 4.36671 0.62612 2.85512 1.74062 1.74062C2.85512 0.62612 4.36671 0 5.94286 0ZM5.94286 1.82857C3.65714 1.82857 1.82857 3.65714 1.82857 5.94286C1.82857 8.22857 3.65714 10.0571 5.94286 10.0571C8.22857 10.0571 10.0571 8.22857 10.0571 5.94286C10.0571 3.65714 8.22857 1.82857 5.94286 1.82857Z"/>
</symbol><symbol viewBox="0 0 14 12" id="tw" xmlns="http://www.w3.org/2000/svg">
<path fill-rule="evenodd" clip-rule="evenodd" d="M4.433 11.3561C5.50822 11.3658 6.5746 11.1612 7.56987 10.7543C8.56513 10.3473 9.46933 9.74608 10.2297 8.98575C10.99 8.22543 11.5912 7.32123 11.9982 6.32596C12.4051 5.33069 12.6097 4.26431 12.6 3.1891V2.8001C13.1434 2.3863 13.6162 1.88716 14 1.3221C13.4786 1.54899 12.9295 1.70601 12.367 1.7891C12.9454 1.42571 13.3838 0.877305 13.611 0.233096C13.049 0.546021 12.4472 0.781489 11.822 0.933096C11.5588 0.636773 11.2352 0.400206 10.873 0.239282C10.5108 0.0783579 10.1183 -0.0031965 9.722 9.58566e-05C8.96225 0.0114528 8.2368 0.318316 7.69951 0.855603C7.16222 1.39289 6.85536 2.11834 6.844 2.8781C6.82638 3.0886 6.85295 3.30046 6.922 3.5001C5.77752 3.44488 4.65805 3.1457 3.63861 2.62262C2.61917 2.09953 1.72329 1.36461 1.011 0.467096C0.755013 0.917552 0.620934 1.42698 0.622002 1.9451C0.632276 2.41513 0.749669 2.87662 0.965244 3.29443C1.18082 3.71223 1.48889 4.07534 1.866 4.3561C1.39853 4.34662 0.942099 4.21232 0.543999 3.9671C0.543268 4.63318 0.776435 5.27837 1.20282 5.7901C1.6292 6.30183 2.22172 6.64761 2.877 6.7671C2.62367 6.83545 2.36085 6.8618 2.099 6.8451C1.91421 6.85743 1.72888 6.83086 1.555 6.7671C1.74529 7.3434 2.10887 7.84689 2.59606 8.2088C3.08325 8.5707 3.6703 8.77336 4.277 8.7891C3.25478 9.58743 1.997 10.0249 0.700001 10.0331C0.463968 10.0457 0.22747 10.0193 0 9.9551C1.28698 10.8897 2.84269 11.381 4.433 11.3551"/>
</symbol><symbol viewBox="0 0 16 16" id="user" xmlns="http://www.w3.org/2000/svg">
<path d="M8 0C9.06087 0 10.0783 0.421427 10.8284 1.17157C11.5786 1.92172 12 2.93913 12 4C12 5.06087 11.5786 6.07828 10.8284 6.82843C10.0783 7.57857 9.06087 8 8 8C6.93913 8 5.92172 7.57857 5.17157 6.82843C4.42143 6.07828 4 5.06087 4 4C4 2.93913 4.42143 1.92172 5.17157 1.17157C5.92172 0.421427 6.93913 0 8 0ZM8 10C12.42 10 16 11.79 16 14V16H0V14C0 11.79 3.58 10 8 10Z"/>
</symbol></svg>